<?xml version="1.0" encoding="UTF-8"?>
<svg version="1.1" xmlns="http://www.w3.org/2000/svg" width="89" height="57">
<path d="M0 0 C3.34401914 1.76056779 6.47835887 3.78553079 9.625 5.875 C10.51074707 6.45636719 11.39649414 7.03773437 12.30908203 7.63671875 C18.55221207 11.8208351 24.12835434 16.31074693 29.4921875 21.5625 C32.21789488 24.21178568 35.05651948 26.59715876 38 29 C37.9375 31.25 37.9375 31.25 37 34 C33.12799974 36.94272019 31.242696 37.97857421 26.375 38.0625 C22.4189795 36.81708614 20.65214209 35.13434975 18 32 C17.83371094 33.04671875 17.66742188 34.0934375 17.49609375 35.171875 C16.28420706 39.40548445 13.96352492 40.84701212 10.28320312 43.0234375 C9.55037109 43.42820313 8.81753906 43.83296875 8.0625 44.25 C6.61389274 45.08509455 5.16720227 45.92352484 3.72265625 46.765625 C3.08078369 47.12430664 2.43891113 47.48298828 1.77758789 47.85253906 C-0.07363737 48.94701682 -0.07363737 48.94701682 -1.54516602 50.63964844 C-3 52 -3 52 -6 52 C-7.67104301 50.3377212 -9.33686066 48.67018654 -11 47 C-13.94951021 44.98472763 -17.06357571 43.22656137 -20.1796875 41.48242188 C-23.5057736 39.48323182 -24.852897 38.52421028 -25.921875 34.71484375 C-25.94765625 33.81894531 -25.9734375 32.92304687 -26 32 C-26.78375 32.804375 -27.5675 33.60875 -28.375 34.4375 C-32.01464714 37.99048887 -32.01464714 37.99048887 -35.0234375 38.01953125 C-38.8464421 37.68295443 -41.3839944 37.4106704 -44.625 35.25 C-46 33 -46 33 -45.86328125 30.62890625 C-44.76629662 27.28831506 -43.22645653 25.95079747 -40.5625 23.6875 C-39.75941406 22.99011719 -38.95632812 22.29273437 -38.12890625 21.57421875 C-36 20 -36 20 -34 20 C-34 19.34 -34 18.68 -34 18 C-27.22806033 11.4879316 -19.03744304 6.75083461 -11 2 C-10.17113281 1.40832031 -9.34226563 0.81664063 -8.48828125 0.20703125 C-5.03088684 -1.47010356 -3.67192391 -1.17745778 0 0 Z " fill="#1C1C19" transform="translate(49,1)"/>
<path d="M0 0 C6.09622172 2.60362466 12.56194209 5.99115738 17 11 C18.92375609 15.91251321 18.04473928 20.94018427 17 26 C15.12616097 26.79441072 13.25087114 27.58539974 11.375 28.375 C9.80878906 29.03628906 9.80878906 29.03628906 8.2109375 29.7109375 C-1.27137449 33.51770509 -7.47613299 33.59969747 -16.9375 30 C-18.10635742 29.57074219 -18.10635742 29.57074219 -19.29882812 29.1328125 C-21.20294317 28.43191126 -23.1020195 27.71734696 -25 27 C-26.67330191 16.1766583 -26.67330191 16.1766583 -25 11 C-21.44267838 6.61948542 -15.98178793 4.38402393 -11 2 C-10.14792969 1.40832031 -9.29585937 0.81664063 -8.41796875 0.20703125 C-5.05851849 -1.46998027 -3.58933207 -1.08112412 0 0 Z " fill="#FAC700" transform="translate(49,1)"/>
<path d="M0 0 C2.8100346 1.79363911 4.50940468 3.01880935 6 6 C6.41204834 10.63554388 5.87454146 13.30416098 3 17 C-0.42159595 19.56619697 -3.84844133 19.50984054 -8 19 C-11.60521591 16.02177816 -13.79128467 13.87843794 -14.3125 9.1875 C-13.92835642 5.2692355 -12.70743683 3.78706733 -10 1 C-6.79826746 -0.60086627 -3.47422941 -0.49917089 0 0 Z " fill="#211F19" transform="translate(49,9)"/>
<path d="M0 0 C0 0.99 0 1.98 0 3 C-1.42114258 4.2109375 -1.42114258 4.2109375 -3.39453125 5.375 C-4.10287109 5.80296875 -4.81121094 6.2309375 -5.54101562 6.671875 C-6.66540039 7.32929687 -6.66540039 7.32929687 -7.8125 8 C-9.27956525 8.87127019 -10.74449228 9.74615305 -12.20703125 10.625 C-12.8616333 11.00914063 -13.51623535 11.39328125 -14.19067383 11.7890625 C-16.06483248 12.94533754 -16.06483248 12.94533754 -17.54956055 14.6484375 C-19 16 -19 16 -22 16 C-23.67838269 14.3451323 -25.34270958 12.67599046 -27 11 C-29.36025743 9.26932392 -31.82468492 7.72733199 -34.3125 6.1875 C-34.95767578 5.78080078 -35.60285156 5.37410156 -36.26757812 4.95507812 C-37.84136655 3.9641743 -39.42017212 2.98124628 -41 2 C-36.14817311 0.38272437 -32.24931566 3.04058566 -27.640625 4.87109375 C-20.30749732 7.14499278 -14.96450133 5.62595423 -8.0625 3 C-7.28326172 2.71382812 -6.50402344 2.42765625 -5.70117188 2.1328125 C-3.79705683 1.43191126 -1.8979805 0.71734696 0 0 Z " fill="#F0C001" transform="translate(65,37)"/>
<path d="M0 0 C2.64 0 5.28 0 8 0 C6.6875 2 6.6875 2 5 4 C4.01 4 3.02 4 2 4 C1.34 2.68 0.68 1.36 0 0 Z " fill="#181818" transform="translate(41,49)"/>
</svg>
